<?xml version="1.0" encoding="UTF-8"?>
<svg id="Layer_1" xmlns="http://www.w3.org/2000/svg" version="1.1" viewBox="0 0 524.2 369.43">
  <!-- Generator: Adobe Illustrator 29.2.1, SVG Export Plug-In . SVG Version: 2.1.0 Build 116)  -->
  <defs>
    <style>
      .st0 {
        fill: #fff;
      }
    </style>
  </defs>
  <g>
    <path class="st0" d="M286.09,203.27v-20.62c0-3.31-1.01-6.04-3.01-8.11-2.06-2.06-4.7-3.1-7.85-3.1s-5.87,1.04-7.85,3.1c-2.07,2.07-3.08,4.72-3.08,8.11v20.62h-8.63v-20.97c0-2.74.5-5.23,1.49-7.4.93-2.2,2.24-4.08,4.01-5.78,1.71-1.57,3.85-2.86,6.18-3.73,2.48-.92,5.06-1.37,7.88-1.37s5.43.46,7.88,1.37c2.29.85,4.35,2.11,6.12,3.74,1.72,1.65,3.06,3.54,4.07,5.77.94,2.21,1.42,4.71,1.42,7.4v20.97h-8.63Z"/>
    <path class="st0" d="M355.55,203.23c-4.71-.42-8.41-4.39-8.41-9.21v-29.25c4.71.42,8.41,4.39,8.41,9.21v29.25ZM351.34,157.02c-1.25,0-2.31-.45-3.24-1.39-.89-.89-1.32-1.95-1.32-3.24s.41-2.26,1.32-3.17c.89-.89,1.95-1.32,3.24-1.32s2.36.43,3.24,1.32c.91.91,1.32,1.89,1.32,3.17s-.43,2.36-1.32,3.24c-.93.93-2,1.39-3.24,1.39Z"/>
    <path class="st0" d="M393.74,203.27v-20.62c0-3.31-1.01-6.04-3.01-8.11-2.06-2.06-4.7-3.1-7.85-3.1s-5.87,1.04-7.85,3.1c-2.07,2.07-3.08,4.72-3.08,8.11v20.62h-8.63v-20.97c0-2.74.5-5.23,1.49-7.4.93-2.2,2.24-4.08,4.01-5.78,1.7-1.57,3.85-2.86,6.18-3.73,2.48-.92,5.06-1.37,7.88-1.37s5.43.46,7.88,1.37c2.29.85,4.35,2.11,6.12,3.74,1.72,1.65,3.06,3.54,4.07,5.77.94,2.21,1.42,4.71,1.42,7.4v20.97h-8.63Z"/>
    <path class="st0" d="M440.05,197.69c-.96,1.86-3.84,4.01-6.08,5.17-2.26,1.16-5.11,1.13-7.87,1.13-2.57,0-4.93-.5-7.03-1.48-2.21-.97-4.09-2.33-5.62-4.06-1.53-1.67-2.77-3.75-3.68-6.2-.91-2.44-1.37-5.12-1.37-7.95,0-3.01.5-5.75,1.5-8.13,1.05-2.52,2.43-4.62,4.22-6.41,1.81-1.81,3.92-3.19,6.47-4.22,2.39-1,5.13-1.5,8.14-1.5,2.83,0,5.5.46,7.95,1.37,2.39.96,4.42,2.25,6.18,3.94,1.76,1.76,3.07,3.71,4,5.97.95,2.3,1.43,4.85,1.43,7.57v20.41h-8.2M428.36,171.37c-1.63,0-3.15.31-4.53.92-1.48.74-2.6,1.59-3.56,2.7-1.1,1.27-1.87,2.56-2.36,3.97-.56,1.68-.83,3.32-.83,5.04s.28,3.39.83,4.97c.49,1.47,1.29,2.82,2.38,3.99.98,1.13,2.14,1.99,3.54,2.61,1.31.66,2.85,1,4.53,1s3.22-.31,4.6-.92c1.46-.65,2.68-1.53,3.63-2.63,1.02-1.17,1.77-2.47,2.29-3.97.51-1.46.76-3.1.76-5.04,0-1.72-.27-3.36-.82-5.03-.53-1.51-1.28-2.8-2.29-3.98-.91-1.06-2.09-1.93-3.6-2.69-1.42-.63-2.94-.94-4.57-.94Z"/>
    <path class="st0" d="M229.52,203.83c-2.96,0-5.65-.51-7.99-1.51-2.56-1.07-4.65-2.45-6.41-4.2-1.76-1.76-3.15-3.91-4.12-6.39-1.03-2.48-1.52-5.15-1.52-8.17s.51-5.64,1.52-8.08c1.07-2.47,2.48-4.61,4.2-6.33,1.66-1.72,3.79-3.13,6.33-4.2,2.36-1,5.05-1.51,8-1.51s5.91.54,8.51,1.59c2.51,1.11,4.6,2.61,6.36,4.59,1.75,2.03,3.13,4.41,4.07,7.04.78,2.15,1.27,5.46,1.35,9.07v.15s.01.09.01.13v.48h-18.37c-3.68,0-6.72-2.78-7.13-6.34h18.04l-.33-1.08c-.01-.05-.02-.09-.04-.12-1.79-5.57-6.64-9.32-12.05-9.32-7.04,0-12.77,6.27-12.77,13.97s5.73,13.97,12.77,13.97c3.39,0,6.56-1.42,8.96-4.01h8.87c-.37.7-.8,1.39-1.29,2.07-1.27,1.76-2.7,3.18-4.38,4.32-1.79,1.29-3.73,2.23-5.79,2.83-2.15.69-4.43,1.04-6.8,1.04Z"/>
    <path class="st0" d="M320.62,203.83c-2.96,0-5.65-.51-7.99-1.51-2.56-1.07-4.65-2.45-6.41-4.2-1.76-1.76-3.15-3.91-4.12-6.39-1.03-2.48-1.52-5.15-1.52-8.17s.51-5.64,1.52-8.08c1.07-2.47,2.48-4.61,4.2-6.33,1.66-1.72,3.79-3.13,6.33-4.2,2.36-1,5.05-1.51,8-1.51s5.91.54,8.51,1.59c2.51,1.11,4.6,2.61,6.36,4.59,1.75,2.03,3.13,4.41,4.07,7.04.78,2.15,1.27,5.46,1.35,9.07v.15s.01.08.01.13v.48h-18.37c-3.68,0-6.72-2.78-7.13-6.34h18.05l-.35-1.09s-.02-.08-.03-.11c-1.8-5.58-6.64-9.33-12.05-9.33-7.04,0-12.77,6.27-12.77,13.97s5.73,13.97,12.77,13.97c3.39,0,6.56-1.42,8.96-4.01h8.87c-.37.71-.8,1.39-1.29,2.07-1.27,1.76-2.7,3.17-4.38,4.32-1.79,1.29-3.73,2.23-5.79,2.83-2.15.69-4.43,1.04-6.8,1.04Z"/>
    <path class="st0" d="M202.07,175.3c-.93-2.25-2.24-4.21-4-5.97-1.76-1.69-3.79-2.98-6.18-3.94-2.45-.91-5.12-1.37-7.95-1.37-3.01,0-5.74.51-8.14,1.5-2.55,1.03-4.66,2.41-6.47,4.22-1.79,1.79-3.17,3.89-4.22,6.41-.99,2.39-1.5,5.12-1.5,8.13,0,2.83.46,5.51,1.37,7.95.91,2.45,2.15,4.53,3.68,6.2,1.53,1.73,3.42,3.09,5.63,4.06,2.1.98,4.47,1.48,7.03,1.48.71,0,1.42,0,2.13-.01,2.05-.05,4.06-.25,5.74-1.11,2.24-1.15,5.12-3.31,6.09-5.17l.02,5.58h.01v.66c0,1.53-.32,3.01-.93,4.32-.65,1.29-1.56,2.46-2.66,3.39-1.21.96-2.51,1.64-3.9,2.08-1.45.53-3.11.8-4.94.8-2.59,0-5.13-.42-7.77-1.3-2.12-.7-3.98-1.66-5.54-2.84l-3.25,6.22c2.18,1.54,4.58,2.69,7.34,3.52,3.04.94,6.12,1.42,9.14,1.42s5.84-.49,8.43-1.47c2.48-.9,4.62-2.19,6.52-3.95,1.77-1.63,3.15-3.6,4.21-6.02.92-2.08,1.41-4.32,1.5-6.82.01-.29.02-.58.02-.88v-19.53c0-2.72-.48-5.27-1.43-7.57ZM194.74,189.03c-.55,1.58-1.34,2.94-2.41,4.18-1.01,1.16-2.3,2.1-3.84,2.79-1.46.65-3.09.98-4.86.98s-3.31-.35-4.66-1.06c-1.47-.66-2.69-1.56-3.72-2.74-1.09-1.17-1.89-2.55-2.44-4.21-.58-1.65-.87-3.4-.87-5.21s.28-3.53.87-5.29c.55-1.58,1.34-2.95,2.41-4.18,1.02-1.17,2.2-2.08,3.75-2.85,1.37-.65,3.01-.98,4.73-.98s3.33.33,4.8.98l.05.03c1.55.82,2.77,1.75,3.7,2.82,1.07,1.24,1.86,2.61,2.42,4.2.58,1.75.86,3.47.86,5.27,0,2.02-.26,3.75-.8,5.29Z"/>
  </g>
  <g>
    <path class="st0" d="M106.52,156.74h27.97v27.97h0c-15.44,0-27.97-12.53-27.97-27.97h0Z"/>
    <path class="st0" d="M75.92,156.74h0c15.44,0,27.97,12.53,27.97,27.97h0c-15.44,0-27.97-12.53-27.97-27.97h0Z" transform="translate(260.64 80.82) rotate(90)"/>
    <path class="st0" d="M106.52,184.72h27.97v27.97h0c-15.44,0-27.97-12.53-27.97-27.97h0Z" transform="translate(241.01 397.41) rotate(180)"/>
    <path class="st0" d="M75.92,184.72h0c15.44,0,27.97,12.53,27.97,27.97h0c-15.44,0-27.97-12.53-27.97-27.97h0Z"/>
  </g>
</svg>